<?xml version="1.0" standalone="no"?>
<!DOCTYPE svg PUBLIC "-//W3C//DTD SVG 1.1//EN" "http://www.w3.org/Graphics/SVG/1.1/DTD/svg11.dtd" >
<svg xmlns="http://www.w3.org/2000/svg">
<metadata></metadata>
<defs>
<font id="28-segment_led_displayregular" horiz-adv-x="1126" >
<font-face units-per-em="2048" ascent="1536" descent="-512" />
<missing-glyph horiz-adv-x="500" />
<glyph horiz-adv-x="2048" />
<glyph horiz-adv-x="2048" />
<glyph unicode="&#xd;" />
<glyph unicode=" " />
<glyph unicode="!" d="M365 0l14 147h117l-13 -147h-118zM403 420l5 49l77 199l41 -199l-6 -49h-117zM451 938l4 49h118l-6 -49l-75 -197zM461 1051l14 147h117l-14 -147h-117zM479 1260l15 149h116l-12 -149h-119z" />
<glyph unicode="#" d="M16 49l11 98h139l-66 -147h-41q-20 0 -32.5 14.5t-10.5 34.5zM31 211l14 147h117l-12 -147h-119zM51 420l12 147h119l-14 -147h-117zM70 631l14 147h117l-15 -147h-116zM88 840l14 147h117l-12 -147h-119zM109 1051l12 147h119l-15 -147h-116zM127 1260l8 98 q4 23 18.5 36t34.5 13h39l39 -147h-139zM158 0l65 147h96l-12 -147h-149zM207 209l14 149h96l-65 -149h-45zM227 420l4 49l224 199l-111 -248h-117zM246 631l14 147h47l146 -73l-160 -74h-47zM274 938l5 49h116l66 -246zM285 1051l12 147h45l39 -147h-96zM287 1409h147 l-14 -149h-94zM365 0l14 147h117l-13 -147h-118zM385 209l12 149h119l-14 -149h-117zM403 420l5 49l77 199l41 -199l-6 -49h-117zM451 938l4 49h118l-6 -49l-75 -197zM461 1051l14 147h117l-14 -147h-117zM479 1260l15 149h116l-12 -149h-119zM516 668l186 -199l-4 -49h-118 zM522 741l109 246h119l-5 -49zM524 705l158 73h47l-12 -147h-47zM541 0l14 147h96l37 -147h-147zM596 358h96l-14 -149h-43zM657 1260l13 149h147l-65 -149h-95zM659 1051l66 147h43l-12 -147h-97zM709 147h141l-10 -98q-2 -20 -16.5 -34.5t-35.5 -14.5h-40zM737 211l15 147 h116l-14 -147h-117zM756 420l14 147h117l-13 -147h-118zM776 631l12 147h117l-12 -147h-117zM795 840l12 147h119l-15 -147h-116zM811 1260l66 147h41q18 0 31.5 -13.5t8.5 -35.5l-8 -98h-139zM813 1051l14 147h117l-12 -147h-119zM920 66l10 100h76l-11 -100h-75zM946 444 l8 101h76l-8 -101h-76zM983 864l10 101h76l-10 -101h-76zM1032 1284l10 100h19q10 0 19.5 -6t17.5 -14q16 -18 12 -45l-2 -35l-66 -125l13 125h-23z" />
<glyph unicode="$" d="M16 49l11 98h139l-66 -147h-41q-20 0 -32.5 14.5t-10.5 34.5zM31 211l14 147h117l-12 -147h-119zM70 631l14 147h117l-15 -147h-116zM88 840l14 147h117l-12 -147h-119zM109 1051l12 147h119l-15 -147h-116zM127 1260l8 98q4 23 18.5 36t34.5 13h39l39 -147h-139zM158 0 l65 147h96l-12 -147h-149zM246 631l14 147h47l146 -73l-160 -74h-47zM287 1409h147l-14 -149h-94zM365 0l14 147h117l-13 -147h-118zM385 209l12 149h119l-14 -149h-117zM403 420l5 49l77 199l41 -199l-6 -49h-117zM451 938l4 49h118l-6 -49l-75 -197zM461 1051l14 147h117 l-14 -147h-117zM479 1260l15 149h116l-12 -149h-119zM524 705l158 73h47l-12 -147h-47zM541 0l14 147h96l37 -147h-147zM657 1260l13 149h147l-65 -149h-95zM709 147h141l-10 -98q-2 -20 -16.5 -34.5t-35.5 -14.5h-40zM737 211l15 147h116l-14 -147h-117zM756 420l14 147 h117l-13 -147h-118zM776 631l12 147h117l-12 -147h-117zM811 1260l66 147h41q18 0 31.5 -13.5t8.5 -35.5l-8 -98h-139zM813 1051l14 147h117l-12 -147h-119z" />
<glyph unicode="%" d="M16 49l11 98h139l-66 -147h-41q-20 0 -32.5 14.5t-10.5 34.5zM31 211l14 147h117l-12 -147h-119zM70 631l14 147h117l-15 -147h-116zM88 840l14 147h117l-12 -147h-119zM109 1051l12 147h119l-15 -147h-116zM127 1260l8 98q4 23 18.5 36t34.5 13h39l39 -147h-139z M207 209l14 149h96l-65 -149h-45zM227 420l4 49l224 199l-111 -248h-117zM246 631l14 147h47l146 -73l-160 -74h-47zM287 1409h147l-14 -149h-94zM365 0l14 147h117l-13 -147h-118zM385 209l12 149h119l-14 -149h-117zM403 420l5 49l77 199l41 -199l-6 -49h-117zM451 938 l4 49h118l-6 -49l-75 -197zM461 1051l14 147h117l-14 -147h-117zM479 1260l15 149h116l-12 -149h-119zM522 741l109 246h119l-5 -49zM524 705l158 73h47l-12 -147h-47zM541 0l14 147h96l37 -147h-147zM659 1051l66 147h43l-12 -147h-97zM709 147h141l-10 -98 q-2 -20 -16.5 -34.5t-35.5 -14.5h-40zM737 211l15 147h116l-14 -147h-117zM756 420l14 147h117l-13 -147h-118zM776 631l12 147h117l-12 -147h-117zM811 1260l66 147h41q18 0 31.5 -13.5t8.5 -35.5l-8 -98h-139zM813 1051l14 147h117l-12 -147h-119z" />
<glyph unicode="&#x26;" d="M16 49l11 98h139l-66 -147h-41q-20 0 -32.5 14.5t-10.5 34.5zM31 211l14 147h117l-12 -147h-119zM51 420l12 147h119l-14 -147h-117zM70 631l14 147h117l-15 -147h-116zM88 840l14 147h117l-12 -147h-119zM109 1051l12 147h119l-15 -147h-116zM127 1260l8 98 q4 23 18.5 36t34.5 13h39l39 -147h-139zM158 0l65 147h96l-12 -147h-149zM246 631l14 147h47l146 -73l-160 -74h-47zM287 1409h147l-14 -149h-94zM365 0l14 147h117l-13 -147h-118zM385 209l12 149h119l-14 -149h-117zM403 420l5 49l77 199l41 -199l-6 -49h-117zM451 938 l4 49h118l-6 -49l-75 -197zM461 1051l14 147h117l-14 -147h-117zM479 1260l15 149h116l-12 -149h-119zM524 705l158 73h47l-12 -147h-47zM541 0l14 147h96l37 -147h-147zM709 147h141l-10 -98q-2 -20 -16.5 -34.5t-35.5 -14.5h-40zM776 631l12 147h117l-12 -147h-117z" />
<glyph unicode="'" d="M451 938l4 49h118l-6 -49l-75 -197zM461 1051l14 147h117l-14 -147h-117zM479 1260l15 149h116l-12 -149h-119z" />
<glyph unicode="(" d="M365 0l14 147h117l-13 -147h-118zM385 209l12 149h119l-14 -149h-117zM403 420l5 49l77 199l41 -199l-6 -49h-117zM451 938l4 49h118l-6 -49l-75 -197zM461 1051l14 147h117l-14 -147h-117zM479 1260l15 149h116l-12 -149h-119zM541 0l14 147h96l37 -147h-147zM657 1260 l13 149h147l-65 -149h-95z" />
<glyph unicode=")" d="M158 0l65 147h96l-12 -147h-149zM287 1409h147l-14 -149h-94zM365 0l14 147h117l-13 -147h-118zM385 209l12 149h119l-14 -149h-117zM403 420l5 49l77 199l41 -199l-6 -49h-117zM451 938l4 49h118l-6 -49l-75 -197zM461 1051l14 147h117l-14 -147h-117zM479 1260l15 149 h116l-12 -149h-119z" />
<glyph unicode="*" d="M70 631l14 147h117l-15 -147h-116zM227 420l4 49l224 199l-111 -248h-117zM246 631l14 147h47l146 -73l-160 -74h-47zM274 938l5 49h116l66 -246zM385 209l12 149h119l-14 -149h-117zM403 420l5 49l77 199l41 -199l-6 -49h-117zM451 938l4 49h118l-6 -49l-75 -197z M461 1051l14 147h117l-14 -147h-117zM516 668l186 -199l-4 -49h-118zM522 741l109 246h119l-5 -49zM524 705l158 73h47l-12 -147h-47zM776 631l12 147h117l-12 -147h-117z" />
<glyph unicode="+" d="M70 631l14 147h117l-15 -147h-116zM246 631l14 147h47l146 -73l-160 -74h-47zM385 209l12 149h119l-14 -149h-117zM403 420l5 49l77 199l41 -199l-6 -49h-117zM451 938l4 49h118l-6 -49l-75 -197zM461 1051l14 147h117l-14 -147h-117zM524 705l158 73h47l-12 -147h-47z M776 631l12 147h117l-12 -147h-117z" />
<glyph unicode="," d="M365 0l14 147h117l-13 -147h-118zM385 209l12 149h119l-14 -149h-117z" />
<glyph unicode="-" d="M70 631h116l15 147h-117zM246 631h47l160 74l-146 73h-47zM524 705l158 73h47l-12 -147h-47zM776 631h117l12 147h-117z" />
<glyph unicode="." horiz-adv-x="0" d="M-211 66l10 100h76l-10 -100h-76z" />
<glyph unicode="/" d="M16 49l11 98h139l-66 -147h-41q-20 0 -32.5 14.5t-10.5 34.5zM31 211l14 147h117l-12 -147h-119zM207 209h45l65 149h-96zM227 420l4 49l224 199l-111 -248h-117zM522 741l109 246h119l-5 -49zM659 1051h97l12 147h-43zM811 1260l66 147h41q18 0 31.5 -13.5t8.5 -35.5 l-8 -98h-139zM813 1051h119l12 147h-117z" />
<glyph unicode="0" d="M16 49l11 98h139l-66 -147h-41q-20 0 -32.5 14.5t-10.5 34.5zM31 211l14 147h117l-12 -147h-119zM51 420l12 147h119l-14 -147h-117zM70 631l14 147h117l-15 -147h-116zM88 840l14 147h117l-12 -147h-119zM109 1051l12 147h119l-15 -147h-116zM127 1260l8 98 q4 23 18.5 36t34.5 13h39l39 -147h-139zM158 0l65 147h96l-12 -147h-149zM207 209l14 149h96l-65 -149h-45zM227 420l4 49l224 199l-111 -248h-117zM287 1409h147l-14 -149h-94zM365 0l14 147h117l-13 -147h-118zM479 1260l15 149h116l-12 -149h-119zM522 741l109 246h119 l-5 -49zM541 0l14 147h96l37 -147h-147zM657 1260l13 149h147l-65 -149h-95zM659 1051l66 147h43l-12 -147h-97zM709 147h141l-10 -98q-2 -20 -16.5 -34.5t-35.5 -14.5h-40zM737 211l15 147h116l-14 -147h-117zM756 420l14 147h117l-13 -147h-118zM776 631l12 147h117 l-12 -147h-117zM795 840l12 147h119l-15 -147h-116zM811 1260l66 147h41q18 0 31.5 -13.5t8.5 -35.5l-8 -98h-139zM813 1051l14 147h117l-12 -147h-119z" />
<glyph unicode="1" d="M16 49l11 98h139l-66 -147h-41q-20 0 -32.5 14.5t-10.5 34.5zM127 1260l8 98q4 23 18.5 36t34.5 13h39l39 -147h-139zM158 0l65 147h96l-12 -147h-149zM287 1409h147l-14 -149h-94zM365 0l14 147h117l-13 -147h-118zM385 209l12 149h119l-14 -149h-117zM403 420l5 49 l77 199l41 -199l-6 -49h-117zM451 938l4 49h118l-6 -49l-75 -197zM461 1051l14 147h117l-14 -147h-117zM479 1260l15 149h116l-12 -149h-119zM541 0l14 147h96l37 -147h-147zM709 147h141l-10 -98q-2 -20 -16.5 -34.5t-35.5 -14.5h-40z" />
<glyph unicode="2" d="M16 49l11 98h139l-66 -147h-41q-20 0 -32.5 14.5t-10.5 34.5zM31 211l14 147h117l-12 -147h-119zM51 420l12 147h119l-14 -147h-117zM70 631l14 147h117l-15 -147h-116zM109 1051l12 147h119l-15 -147h-116zM127 1260l8 98q4 23 18.5 36t34.5 13h39l39 -147h-139zM158 0 l65 147h96l-12 -147h-149zM246 631l14 147h47l146 -73l-160 -74h-47zM287 1409h147l-14 -149h-94zM365 0l14 147h117l-13 -147h-118zM479 1260l15 149h116l-12 -149h-119zM524 705l158 73h47l-12 -147h-47zM541 0l14 147h96l37 -147h-147zM657 1260l13 149h147l-65 -149h-95 zM709 147h141l-10 -98q-2 -20 -16.5 -34.5t-35.5 -14.5h-40zM776 631l12 147h117l-12 -147h-117zM795 840l12 147h119l-15 -147h-116zM811 1260l66 147h41q18 0 31.5 -13.5t8.5 -35.5l-8 -98h-139zM813 1051l14 147h117l-12 -147h-119z" />
<glyph unicode="3" d="M16 49l11 98h139l-66 -147h-41q-20 0 -32.5 14.5t-10.5 34.5zM31 211l14 147h117l-12 -147h-119zM109 1051l12 147h119l-15 -147h-116zM127 1260l8 98q4 23 18.5 36t34.5 13h39l39 -147h-139zM158 0l65 147h96l-12 -147h-149zM246 631l14 147h47l146 -73l-160 -74h-47z M287 1409h147l-14 -149h-94zM365 0l14 147h117l-13 -147h-118zM479 1260l15 149h116l-12 -149h-119zM524 705l158 73h47l-12 -147h-47zM541 0l14 147h96l37 -147h-147zM657 1260l13 149h147l-65 -149h-95zM709 147h141l-10 -98q-2 -20 -16.5 -34.5t-35.5 -14.5h-40zM737 211 l15 147h116l-14 -147h-117zM756 420l14 147h117l-13 -147h-118zM776 631l12 147h117l-12 -147h-117zM795 840l12 147h119l-15 -147h-116zM811 1260l66 147h41q18 0 31.5 -13.5t8.5 -35.5l-8 -98h-139zM813 1051l14 147h117l-12 -147h-119z" />
<glyph unicode="4" d="M70 631l14 147h117l-15 -147h-116zM88 840l14 147h117l-12 -147h-119zM109 1051l12 147h119l-15 -147h-116zM127 1260l8 98q4 23 18.5 36t34.5 13h39l39 -147h-139zM246 631l14 147h47l146 -73l-160 -74h-47zM524 705l158 73h47l-12 -147h-47zM709 147h141l-10 -98 q-2 -20 -16.5 -34.5t-35.5 -14.5h-40zM737 211l15 147h116l-14 -147h-117zM756 420l14 147h117l-13 -147h-118zM776 631l12 147h117l-12 -147h-117zM795 840l12 147h119l-15 -147h-116zM811 1260l66 147h41q18 0 31.5 -13.5t8.5 -35.5l-8 -98h-139zM813 1051l14 147h117 l-12 -147h-119z" />
<glyph unicode="5" d="M16 49l11 98h139l-66 -147h-41q-20 0 -32.5 14.5t-10.5 34.5zM31 211l14 147h117l-12 -147h-119zM70 631l14 147h117l-15 -147h-116zM88 840l14 147h117l-12 -147h-119zM109 1051l12 147h119l-15 -147h-116zM127 1260l8 98q4 23 18.5 36t34.5 13h39l39 -147h-139zM158 0 l65 147h96l-12 -147h-149zM246 631l14 147h47l146 -73l-160 -74h-47zM287 1409h147l-14 -149h-94zM365 0l14 147h117l-13 -147h-118zM479 1260l15 149h116l-12 -149h-119zM524 705l158 73h47l-12 -147h-47zM541 0l14 147h96l37 -147h-147zM657 1260l13 149h147l-65 -149h-95 zM709 147h141l-10 -98q-2 -20 -16.5 -34.5t-35.5 -14.5h-40zM737 211l15 147h116l-14 -147h-117zM756 420l14 147h117l-13 -147h-118zM776 631l12 147h117l-12 -147h-117zM811 1260l66 147h41q18 0 31.5 -13.5t8.5 -35.5l-8 -98h-139z" />
<glyph unicode="6" d="M16 49l11 98h139l-66 -147h-41q-20 0 -32.5 14.5t-10.5 34.5zM31 211l14 147h117l-12 -147h-119zM51 420l12 147h119l-14 -147h-117zM70 631l14 147h117l-15 -147h-116zM88 840l14 147h117l-12 -147h-119zM109 1051l12 147h119l-15 -147h-116zM127 1260l8 98 q4 23 18.5 36t34.5 13h39l39 -147h-139zM158 0l65 147h96l-12 -147h-149zM246 631l14 147h47l146 -73l-160 -74h-47zM287 1409h147l-14 -149h-94zM365 0l14 147h117l-13 -147h-118zM479 1260l15 149h116l-12 -149h-119zM524 705l158 73h47l-12 -147h-47zM541 0l14 147h96 l37 -147h-147zM657 1260l13 149h147l-65 -149h-95zM709 147h141l-10 -98q-2 -20 -16.5 -34.5t-35.5 -14.5h-40zM737 211l15 147h116l-14 -147h-117zM756 420l14 147h117l-13 -147h-118zM776 631l12 147h117l-12 -147h-117zM811 1260l66 147h41q18 0 31.5 -13.5t8.5 -35.5 l-8 -98h-139zM813 1051l14 147h117l-12 -147h-119z" />
<glyph unicode="7" d="M88 840l14 147h117l-12 -147h-119zM109 1051l12 147h119l-15 -147h-116zM127 1260l8 98q4 23 18.5 36t34.5 13h39l39 -147h-139zM287 1409h147l-14 -149h-94zM479 1260l15 149h116l-12 -149h-119zM657 1260l13 149h147l-65 -149h-95zM709 147h141l-10 -98 q-2 -20 -16.5 -34.5t-35.5 -14.5h-40zM737 211l15 147h116l-14 -147h-117zM756 420l14 147h117l-13 -147h-118zM776 631l12 147h117l-12 -147h-117zM795 840l12 147h119l-15 -147h-116zM811 1260l66 147h41q18 0 31.5 -13.5t8.5 -35.5l-8 -98h-139zM813 1051l14 147h117 l-12 -147h-119z" />
<glyph unicode="8" d="M16 49l11 98h139l-66 -147h-41q-20 0 -32.5 14.5t-10.5 34.5zM31 211l14 147h117l-12 -147h-119zM51 420l12 147h119l-14 -147h-117zM70 631l14 147h117l-15 -147h-116zM88 840l14 147h117l-12 -147h-119zM109 1051l12 147h119l-15 -147h-116zM127 1260l8 98 q4 23 18.5 36t34.5 13h39l39 -147h-139zM158 0l65 147h96l-12 -147h-149zM246 631l14 147h47l146 -73l-160 -74h-47zM287 1409h147l-14 -149h-94zM365 0l14 147h117l-13 -147h-118zM479 1260l15 149h116l-12 -149h-119zM524 705l158 73h47l-12 -147h-47zM541 0l14 147h96 l37 -147h-147zM657 1260l13 149h147l-65 -149h-95zM709 147h141l-10 -98q-2 -20 -16.5 -34.5t-35.5 -14.5h-40zM737 211l15 147h116l-14 -147h-117zM756 420l14 147h117l-13 -147h-118zM776 631l12 147h117l-12 -147h-117zM795 840l12 147h119l-15 -147h-116zM811 1260 l66 147h41q18 0 31.5 -13.5t8.5 -35.5l-8 -98h-139zM813 1051l14 147h117l-12 -147h-119z" />
<glyph unicode="9" d="M16 49l11 98h139l-66 -147h-41q-20 0 -32.5 14.5t-10.5 34.5zM31 211l14 147h117l-12 -147h-119zM70 631l14 147h117l-15 -147h-116zM88 840l14 147h117l-12 -147h-119zM109 1051l12 147h119l-15 -147h-116zM127 1260l8 98q4 23 18.5 36t34.5 13h39l39 -147h-139zM158 0 l65 147h96l-12 -147h-149zM246 631l14 147h47l146 -73l-160 -74h-47zM287 1409h147l-14 -149h-94zM365 0l14 147h117l-13 -147h-118zM479 1260l15 149h116l-12 -149h-119zM524 705l158 73h47l-12 -147h-47zM541 0l14 147h96l37 -147h-147zM657 1260l13 149h147l-65 -149h-95 zM709 147h141l-10 -98q-2 -20 -16.5 -34.5t-35.5 -14.5h-40zM737 211l15 147h116l-14 -147h-117zM756 420l14 147h117l-13 -147h-118zM776 631l12 147h117l-12 -147h-117zM795 840l12 147h119l-15 -147h-116zM811 1260l66 147h41q18 0 31.5 -13.5t8.5 -35.5l-8 -98h-139z M813 1051l14 147h117l-12 -147h-119z" />
<glyph unicode=":" horiz-adv-x="0" d="M-190 444l8 101h76l-9 -101h-75zM-154 864l11 101h75l-10 -101h-76z" />
<glyph unicode=";" d="M16 49l11 98h139l-66 -147h-41q-20 0 -32.5 14.5t-10.5 34.5zM31 211l14 147h117l-12 -147h-119zM51 420l12 147h119l-14 -147h-117zM70 631l14 147h117l-15 -147h-116zM88 840l14 147h117l-12 -147h-119zM109 1051l12 147h119l-15 -147h-116zM127 1260l8 98 q4 23 18.5 36t34.5 13h39l39 -147h-139zM158 0l65 147h96l-12 -147h-149zM207 209l14 149h96l-65 -149h-45zM227 420l4 49l224 199l-111 -248h-117zM246 631l14 147h47l146 -73l-160 -74h-47zM274 938l5 49h116l66 -246zM285 1051l12 147h45l39 -147h-96zM287 1409h147 l-14 -149h-94zM365 0l14 147h117l-13 -147h-118zM385 209l12 149h119l-14 -149h-117zM403 420l5 49l77 199l41 -199l-6 -49h-117zM451 938l4 49h118l-6 -49l-75 -197zM461 1051l14 147h117l-14 -147h-117zM479 1260l15 149h116l-12 -149h-119zM516 668l186 -199l-4 -49h-118 zM522 741l109 246h119l-5 -49zM524 705l158 73h47l-12 -147h-47zM541 0l14 147h96l37 -147h-147zM596 358h96l-14 -149h-43zM657 1260l13 149h147l-65 -149h-95zM659 1051l66 147h43l-12 -147h-97zM709 147h141l-10 -98q-2 -20 -16.5 -34.5t-35.5 -14.5h-40zM737 211l15 147 h116l-14 -147h-117zM756 420l14 147h117l-13 -147h-118zM776 631l12 147h117l-12 -147h-117zM795 840l12 147h119l-15 -147h-116zM811 1260l66 147h41q18 0 31.5 -13.5t8.5 -35.5l-8 -98h-139zM813 1051l14 147h117l-12 -147h-119zM920 66l10 100h76l-11 -100h-75zM946 444 l8 101h76l-8 -101h-76zM983 864l10 101h76l-10 -101h-76zM1032 1284l10 100h19q10 0 19.5 -6t17.5 -14q16 -18 12 -45l-2 -35l-66 -125l13 125h-23z" />
<glyph unicode="&#x3c;" d="M516 668l64 -248h118l4 49zM522 741l109 246h119l-5 -49zM596 358h96l-14 -149h-43zM659 1051h97l12 147h-43zM709 147l39 -147h40q20 0 35 14.5t17 34.5l10 98h-141zM737 211l15 147h116l-14 -147h-117zM811 1260l66 147h41q18 0 31.5 -13.5t8.5 -35.5l-8 -98h-139z M813 1051h119l12 147h-117z" />
<glyph unicode="&#x3e;" d="M16 49l11 98h139l-66 -147h-41q-20 0 -32.5 14.5t-10.5 34.5zM31 211l14 147h117l-12 -147h-119zM109 1051l12 147h119l-15 -147h-116zM127 1260l8 98q4 23 18.5 36t34.5 13h39l39 -147h-139zM207 209l14 149h96l-65 -149h-45zM227 420l4 49l224 199l-111 -248h-117z M274 938l5 49h116l66 -246zM285 1051l12 147h45l39 -147h-96z" />
<glyph unicode="?" d="M109 1051l12 147h119l-15 -147h-116zM127 1260l8 98q4 23 18.5 36t34.5 13h39l39 -147h-139zM287 1409h147l-14 -149h-94zM365 0l14 147h117l-13 -147h-118zM403 420l5 49l77 199l41 -199l-6 -49h-117zM479 1260l15 149h116l-12 -149h-119zM522 741l109 246h119l-5 -49z M657 1260l13 149h147l-65 -149h-95zM659 1051l66 147h43l-12 -147h-97zM811 1260l66 147h41q18 0 31.5 -13.5t8.5 -35.5l-8 -98h-139zM813 1051l14 147h117l-12 -147h-119z" />
<glyph unicode="A" d="M16 49l11 98h139l-66 -147h-41q-21 0 -33 14q-11 12 -10 30v5zM31 211l14 147h117l-12 -147h-119zM51 420l12 147h119l-14 -147h-117zM70 631l14 147h117l-15 -147h-116zM88 840l14 147h117l-12 -147h-119zM109 1051l12 147h119l-15 -147h-116zM127 1260l8 98 q4 23 18.5 36t34.5 13h39l39 -147h-139zM246 631l14 147h47l146 -73l-160 -74h-47zM287 1409h147l-14 -149h-94zM479 1260l15 149h116l-12 -149h-119zM524 705l158 73h47l-12 -147h-47zM657 1260l13 149h147l-65 -149h-95zM709 147h141l-10 -98q-2 -20 -16.5 -34.5 t-35.5 -14.5h-40zM737 211l15 147h116l-14 -147h-117zM756 420l14 147h117l-13 -147h-118zM776 631l12 147h117l-12 -147h-117zM795 840l12 147h119l-15 -147h-116zM811 1260l66 147h41q18 1 32 -13q10 -10 9 -25q0 -5 -1 -11l-8 -98h-139zM813 1051l14 147h117l-12 -147 h-119z" />
<glyph unicode="B" d="M16 49l11 98h139l-66 -147h-41q-21 0 -33 14q-11 12 -10 30v5zM31 211l14 147h117l-12 -147h-119zM51 420l12 147h119l-14 -147h-117zM70 631l14 147h117l-15 -147h-116zM88 840l14 147h117l-12 -147h-119zM109 1051l12 147h119l-15 -147h-116zM127 1260l8 98 q4 23 18.5 36t34.5 13h39l39 -147h-139zM158 0l65 147h96l-12 -147h-149zM246 631l14 147h47l146 -73l-160 -74h-47zM287 1409h147l-14 -149h-94zM365 0l14 147h117l-13 -147h-118zM479 1260l15 149h116l-12 -149h-119zM522 741l109 246h119l-5 -49zM524 705l158 73h47 l-12 -147h-47zM541 0l14 147h96l37 -147h-147zM657 1260l13 149h147l-65 -149h-95zM659 1051l66 147h43l-12 -147h-97zM709 147h141l-10 -98q-2 -20 -16.5 -34.5t-35.5 -14.5h-40zM737 211l15 147h116l-14 -147h-117zM756 420l14 147h117l-13 -147h-118zM776 631l12 147h117 l-12 -147h-117zM811 1260l66 147h41q18 1 32 -13q10 -10 9 -25q0 -5 -1 -11l-8 -98h-139zM813 1051l14 147h117l-12 -147h-119z" />
<glyph unicode="C" d="M16 49l11 98h139l-66 -147h-41q-21 0 -33 14q-11 12 -10 30v5zM31 211l14 147h117l-12 -147h-119zM51 420l12 147h119l-14 -147h-117zM70 631l14 147h117l-15 -147h-116zM88 840l14 147h117l-12 -147h-119zM109 1051l12 147h119l-15 -147h-116zM127 1260l8 98 q4 23 18.5 36t34.5 13h39l39 -147h-139zM158 0l65 147h96l-12 -147h-149zM287 1409h147l-14 -149h-94zM365 0l14 147h117l-13 -147h-118zM479 1260l15 149h116l-12 -149h-119zM541 0l14 147h96l37 -147h-147zM657 1260l13 149h147l-65 -149h-95zM709 147h141l-10 -98 q-2 -20 -16.5 -34.5t-35.5 -14.5h-40zM737 211l15 147h116l-14 -147h-117zM811 1260l66 147h41q18 1 32 -13q10 -10 9 -25q0 -5 -1 -11l-8 -98h-139zM813 1051l14 147h117l-12 -147h-119z" />
<glyph unicode="D" d="M16 49l11 98h139l-66 -147h-41q-21 0 -33 14q-11 12 -10 30v5zM127 1260l8 98q4 23 18.5 36t34.5 13h39l39 -147h-139zM158 0l65 147h96l-12 -147h-149zM287 1409h147l-14 -149h-94zM365 0l14 147h117l-13 -147h-118zM385 209l12 149h119l-14 -149h-117zM403 420l5 49 l77 199l41 -199l-6 -49h-117zM451 938l4 49h118l-6 -49l-75 -197zM461 1051l14 147h117l-14 -147h-117zM479 1260l15 149h116l-12 -149h-119zM541 0l14 147h96l37 -147h-147zM657 1260l13 149h147l-65 -149h-95zM709 147h141l-10 -98q-2 -20 -16.5 -34.5t-35.5 -14.5h-40z M737 211l15 147h116l-14 -147h-117zM756 420l14 147h117l-13 -147h-118zM776 631l12 147h117l-12 -147h-117zM795 840l12 147h119l-15 -147h-116zM811 1260l66 147h41q18 1 32 -13q10 -10 9 -25q0 -5 -1 -11l-8 -98h-139zM813 1051l14 147h117l-12 -147h-119z" />
<glyph unicode="E" d="M16 49l11 98h139l-66 -147h-41q-21 0 -33 14q-11 12 -10 30v5zM31 211l14 147h117l-12 -147h-119zM51 420l12 147h119l-14 -147h-117zM70 631l14 147h117l-15 -147h-116zM88 840l14 147h117l-12 -147h-119zM109 1051l12 147h119l-15 -147h-116zM127 1260l8 98 q4 23 18.5 36t34.5 13h39l39 -147h-139zM158 0l65 147h96l-12 -147h-149zM246 631l14 147h47l146 -73l-160 -74h-47zM287 1409h147l-14 -149h-94zM365 0l14 147h117l-13 -147h-118zM479 1260l15 149h116l-12 -149h-119zM524 705l158 73h47l-12 -147h-47zM541 0l14 147h96 l37 -147h-147zM657 1260l13 149h147l-65 -149h-95zM709 147h141l-10 -98q-2 -20 -16.5 -34.5t-35.5 -14.5h-40zM776 631l12 147h117l-12 -147h-117zM811 1260l66 147h41q18 1 32 -13q10 -10 9 -25q0 -5 -1 -11l-8 -98h-139z" />
<glyph unicode="F" d="M16 49l11 98h139l-66 -147h-41q-21 0 -33 14q-11 12 -10 30v5zM31 211l14 147h117l-12 -147h-119zM51 420l12 147h119l-14 -147h-117zM70 631l14 147h117l-15 -147h-116zM88 840l14 147h117l-12 -147h-119zM109 1051l12 147h119l-15 -147h-116zM127 1260l8 98 q4 23 18.5 36t34.5 13h39l39 -147h-139zM246 631l14 147h47l146 -73l-160 -74h-47zM287 1409h147l-14 -149h-94zM479 1260l15 149h116l-12 -149h-119zM524 705l158 73h47l-12 -147h-47zM657 1260l13 149h147l-65 -149h-95zM776 631l12 147h117l-12 -147h-117zM811 1260 l66 147h41q18 1 32 -13q10 -10 9 -25q0 -5 -1 -11l-8 -98h-139z" />
<glyph unicode="G" d="M16 49l11 98h139l-66 -147h-41q-20 0 -33 14q-10 13 -10 30v5zM31 211l14 147h117l-12 -147h-119zM51 420l12 147h119l-14 -147h-117zM70 631l14 147h117l-15 -147h-116zM88 840l14 147h117l-12 -147h-119zM109 1051l12 147h119l-15 -147h-116zM127 1260l8 98 q4 23 18.5 36t34.5 13h39l39 -147h-139zM158 0l65 147h96l-12 -147h-149zM287 1409h147l-14 -149h-94zM365 0l14 147h117l-13 -147h-118zM479 1260l15 149h116l-12 -149h-119zM524 705l158 73h47l-12 -147h-47zM541 0l14 147h96l37 -147h-147zM657 1260l13 149h147l-65 -149 h-95zM709 147h141l-10 -98q-2 -20 -16.5 -34.5t-35.5 -14.5h-40zM737 211l15 147h116l-14 -147h-117zM756 420l14 147h117l-13 -147h-118zM776 631l12 147h117l-12 -147h-117zM811 1260l66 147h41q18 0 32 -13q9 -10 9 -25q0 -5 -1 -11l-8 -98h-139zM813 1051l14 147h117 l-12 -147h-119z" />
<glyph unicode="H" d="M16 49l11 98h139l-66 -147h-41q-21 0 -33 14q-11 12 -10 30v5zM31 211l14 147h117l-12 -147h-119zM51 420l12 147h119l-14 -147h-117zM70 631l14 147h117l-15 -147h-116zM88 840l14 147h117l-12 -147h-119zM109 1051l12 147h119l-15 -147h-116zM127 1260l8 98 q4 23 18.5 36t34.5 13h39l39 -147h-139zM246 631l14 147h47l146 -73l-160 -74h-47zM524 705l158 73h47l-12 -147h-47zM709 147h141l-10 -98q-2 -20 -16.5 -34.5t-35.5 -14.5h-40zM737 211l15 147h116l-14 -147h-117zM756 420l14 147h117l-13 -147h-118zM776 631l12 147h117 l-12 -147h-117zM795 840l12 147h119l-15 -147h-116zM811 1260l66 147h41q18 1 32 -13q10 -10 9 -25q0 -5 -1 -11l-8 -98h-139zM813 1051l14 147h117l-12 -147h-119z" />
<glyph unicode="I" d="M16 49l11 98h139l-66 -147h-41q-21 0 -33 14q-11 12 -10 30v5zM127 1260l8 98q4 23 18.5 36t34.5 13h39l39 -147h-139zM158 0l65 147h96l-12 -147h-149zM287 1409h147l-14 -149h-94zM365 0l14 147h117l-13 -147h-118zM385 209l12 149h119l-14 -149h-117zM403 420l5 49 l77 199l41 -199l-6 -49h-117zM451 938l4 49h118l-6 -49l-75 -197zM461 1051l14 147h117l-14 -147h-117zM479 1260l15 149h116l-12 -149h-119zM541 0l14 147h96l37 -147h-147zM657 1260l13 149h147l-65 -149h-95zM709 147h141l-10 -98q-2 -20 -16.5 -34.5t-35.5 -14.5h-40z M811 1260l66 147h41q18 1 32 -13q10 -10 9 -25q0 -5 -1 -11l-8 -98h-139z" />
<glyph unicode="J" d="M16 49l11 98h139l-66 -147h-41q-20 0 -33 14q-10 13 -10 30v5zM31 211l14 147h117l-12 -147h-119zM51 420h117l14 147h-119zM158 0l65 147h96l-12 -147h-149zM365 0l14 147h117l-13 -147h-118zM541 0h147l-37 147h-96zM709 147l39 -147h40q20 0 35 14.5t17 34.5l10 98 h-141zM737 211l15 147h116l-14 -147h-117zM756 420h118l13 147h-117zM776 631h117l12 147h-117zM795 840h116l15 147h-119zM811 1260l66 147h41q18 0 32 -13q9 -10 9 -25q0 -5 -1 -11l-8 -98h-139zM813 1051h119l12 147h-117z" />
<glyph unicode="K" d="M16 49l11 98h139l-66 -147h-41q-21 0 -33 14q-11 12 -10 30v5zM31 211l14 147h117l-12 -147h-119zM51 420l12 147h119l-14 -147h-117zM70 631l14 147h117l-15 -147h-116zM88 840l14 147h117l-12 -147h-119zM109 1051l12 147h119l-15 -147h-116zM127 1260l8 98 q4 23 18.5 36t34.5 13h39l39 -147h-139zM246 631l14 147h47l146 -73l-160 -74h-47zM516 668l186 -199l-4 -49h-118zM522 741l109 246h119l-5 -49zM596 358h96l-14 -149h-43zM659 1051l66 147h43l-12 -147h-97zM709 147h141l-10 -98q-2 -20 -16.5 -34.5t-35.5 -14.5h-40z M737 211l15 147h116l-14 -147h-117zM811 1260l66 147h41q18 1 32 -13q10 -10 9 -25q0 -5 -1 -11l-8 -98h-139zM813 1051l14 147h117l-12 -147h-119z" />
<glyph unicode="L" d="M16 49l11 98h139l-66 -147h-41q-21 0 -33 14q-11 12 -10 30v5zM31 211l14 147h117l-12 -147h-119zM51 420l12 147h119l-14 -147h-117zM70 631l14 147h117l-15 -147h-116zM88 840l14 147h117l-12 -147h-119zM109 1051l12 147h119l-15 -147h-116zM127 1260l8 98 q4 23 18.5 36t34.5 13h39l39 -147h-139zM158 0l65 147h96l-12 -147h-149zM365 0l14 147h117l-13 -147h-118zM541 0l14 147h96l37 -147h-147zM709 147h141l-10 -98q-2 -20 -16.5 -34.5t-35.5 -14.5h-40z" />
<glyph unicode="M" d="M16 49l11 98h139l-66 -147h-41q-21 0 -33 14q-11 12 -10 30v5zM31 211l14 147h117l-12 -147h-119zM51 420l12 147h119l-14 -147h-117zM70 631l14 147h117l-15 -147h-116zM88 840l14 147h117l-12 -147h-119zM109 1051l12 147h119l-15 -147h-116zM127 1260l8 98 q4 23 18.5 36t34.5 13h39l39 -147h-139zM274 938l5 49h116l66 -246zM285 1051l12 147h45l39 -147h-96zM365 0l14 147h117l-13 -147h-118zM385 209l12 149h119l-14 -149h-117zM403 420l5 49l77 199l41 -199l-6 -49h-117zM522 741l109 246h119l-5 -49zM659 1051l66 147h43 l-12 -147h-97zM709 147h141l-10 -98q-2 -20 -16.5 -34.5t-35.5 -14.5h-40zM737 211l15 147h116l-14 -147h-117zM756 420l14 147h117l-13 -147h-118zM776 631l12 147h117l-12 -147h-117zM795 840l12 147h119l-15 -147h-116zM811 1260l66 147h41q18 1 32 -13q10 -10 9 -25 q0 -5 -1 -11l-8 -98h-139zM813 1051l14 147h117l-12 -147h-119z" />
<glyph unicode="N" d="M16 49l11 98h139l-66 -147h-41q-21 0 -33 14q-11 12 -10 30v5zM31 211l14 147h117l-12 -147h-119zM51 420l12 147h119l-14 -147h-117zM70 631l14 147h117l-15 -147h-116zM88 840l14 147h117l-12 -147h-119zM109 1051l12 147h119l-15 -147h-116zM127 1260l8 98 q4 23 18.5 36t34.5 13h39l39 -147h-139zM274 938l5 49h116l66 -246zM285 1051l12 147h45l39 -147h-96zM516 668l186 -199l-4 -49h-118zM596 358h96l-14 -149h-43zM709 147h141l-10 -98q-2 -20 -16.5 -34.5t-35.5 -14.5h-40zM737 211l15 147h116l-14 -147h-117zM756 420 l14 147h117l-13 -147h-118zM776 631l12 147h117l-12 -147h-117zM795 840l12 147h119l-15 -147h-116zM811 1260l66 147h41q18 1 32 -13q10 -10 9 -25q0 -5 -1 -11l-8 -98h-139zM813 1051l14 147h117l-12 -147h-119z" />
<glyph unicode="O" d="M16 49l11 98h139l-66 -147h-41q-21 0 -33 14q-11 12 -10 30v5zM31 211l14 147h117l-12 -147h-119zM51 420l12 147h119l-14 -147h-117zM70 631l14 147h117l-15 -147h-116zM88 840l14 147h117l-12 -147h-119zM109 1051l12 147h119l-15 -147h-116zM127 1260l8 98 q4 23 18.5 36t34.5 13h39l39 -147h-139zM158 0l65 147h96l-12 -147h-149zM287 1409h147l-14 -149h-94zM365 0l14 147h117l-13 -147h-118zM479 1260l15 149h116l-12 -149h-119zM541 0l14 147h96l37 -147h-147zM657 1260l13 149h147l-65 -149h-95zM709 147h141l-10 -98 q-2 -20 -16.5 -34.5t-35.5 -14.5h-40zM737 211l15 147h116l-14 -147h-117zM756 420l14 147h117l-13 -147h-118zM776 631l12 147h117l-12 -147h-117zM795 840l12 147h119l-15 -147h-116zM811 1260l66 147h41q18 1 32 -13q10 -10 9 -25q0 -5 -1 -11l-8 -98h-139zM813 1051 l14 147h117l-12 -147h-119z" />
<glyph unicode="P" d="M16 49l11 98h139l-66 -147h-41q-21 0 -33 14q-11 12 -10 30v5zM31 211l14 147h117l-12 -147h-119zM51 420l12 147h119l-14 -147h-117zM70 631l14 147h117l-15 -147h-116zM88 840l14 147h117l-12 -147h-119zM109 1051l12 147h119l-15 -147h-116zM127 1260l8 98 q4 23 18.5 36t34.5 13h39l39 -147h-139zM246 631l14 147h47l146 -73l-160 -74h-47zM287 1409h147l-14 -149h-94zM479 1260l15 149h116l-12 -149h-119zM524 705l158 73h47l-12 -147h-47zM657 1260l13 149h147l-65 -149h-95zM776 631l12 147h117l-12 -147h-117zM795 840 l12 147h119l-15 -147h-116zM811 1260l66 147h41q18 1 32 -13q10 -10 9 -25q0 -5 -1 -11l-8 -98h-139zM813 1051l14 147h117l-12 -147h-119z" />
<glyph unicode="Q" d="M16 49l11 98h139l-66 -147h-41q-20 0 -33 14q-10 13 -10 30v5zM31 211l14 147h117l-12 -147h-119zM51 420l12 147h119l-14 -147h-117zM70 631l14 147h117l-15 -147h-116zM88 840l14 147h117l-12 -147h-119zM109 1051l12 147h119l-15 -147h-116zM127 1260l8 98 q4 23 18.5 36t34.5 13h39l39 -147h-139zM158 0l65 147h96l-12 -147h-149zM287 1409h147l-14 -149h-94zM365 0l14 147h117l-13 -147h-118zM479 1260l15 149h116l-12 -149h-119zM516 668l186 -199l-4 -49h-118zM541 0l14 147h96l37 -147h-147zM596 358h96l-14 -149h-43z M657 1260l13 149h147l-65 -149h-95zM709 147h141l-10 -98q-2 -20 -16.5 -34.5t-35.5 -14.5h-40zM737 211l15 147h116l-14 -147h-117zM756 420l14 147h117l-13 -147h-118zM776 631l12 147h117l-12 -147h-117zM795 840l12 147h119l-15 -147h-116zM811 1260l66 147h41 q18 0 32 -13q9 -10 9 -25q0 -5 -1 -11l-8 -98h-139zM813 1051l14 147h117l-12 -147h-119z" />
<glyph unicode="R" d="M16 49l11 98h139l-66 -147h-41q-21 0 -33 14q-11 12 -10 30v5zM31 211l14 147h117l-12 -147h-119zM51 420l12 147h119l-14 -147h-117zM70 631l14 147h117l-15 -147h-116zM88 840l14 147h117l-12 -147h-119zM109 1051l12 147h119l-15 -147h-116zM127 1260l8 98 q4 23 18.5 36t34.5 13h39l39 -147h-139zM246 631l14 147h47l146 -73l-160 -74h-47zM287 1409h147l-14 -149h-94zM479 1260l15 149h116l-12 -149h-119zM516 668l186 -199l-4 -49h-118zM524 705l158 73h47l-12 -147h-47zM596 358h96l-14 -149h-43zM657 1260l13 149h147 l-65 -149h-95zM709 147h141l-10 -98q-2 -20 -16.5 -34.5t-35.5 -14.5h-40zM737 211l15 147h116l-14 -147h-117zM776 631l12 147h117l-12 -147h-117zM795 840l12 147h119l-15 -147h-116zM811 1260l66 147h41q18 1 32 -13q10 -10 9 -25q0 -5 -1 -11l-8 -98h-139zM813 1051 l14 147h117l-12 -147h-119z" />
<glyph unicode="S" d="M16 49l11 98h139l-66 -147h-41q-21 0 -33 14q-11 12 -10 30v5zM31 211l14 147h117l-12 -147h-119zM70 631l14 147h117l-15 -147h-116zM88 840l14 147h117l-12 -147h-119zM109 1051l12 147h119l-15 -147h-116zM127 1260l8 98q4 23 18.5 36t34.5 13h39l39 -147h-139zM158 0 l65 147h96l-12 -147h-149zM246 631l14 147h47l146 -73l-160 -74h-47zM287 1409h147l-14 -149h-94zM365 0l14 147h117l-13 -147h-118zM479 1260l15 149h116l-12 -149h-119zM524 705l158 73h47l-12 -147h-47zM541 0l14 147h96l37 -147h-147zM657 1260l13 149h147l-65 -149h-95 zM709 147h141l-10 -98q-2 -20 -16.5 -34.5t-35.5 -14.5h-40zM737 211l15 147h116l-14 -147h-117zM756 420l14 147h117l-13 -147h-118zM776 631l12 147h117l-12 -147h-117zM811 1260l66 147h41q18 1 32 -13q10 -10 9 -25q0 -5 -1 -11l-8 -98h-139zM813 1051l14 147h117 l-12 -147h-119z" />
<glyph unicode="T" d="M127 1260l8 98q4 23 18.5 36t34.5 13h39l39 -147h-139zM287 1409h147l-14 -149h-94zM365 0l14 147h117l-13 -147h-118zM385 209l12 149h119l-14 -149h-117zM403 420l5 49l77 199l41 -199l-6 -49h-117zM451 938l4 49h118l-6 -49l-75 -197zM461 1051l14 147h117l-14 -147 h-117zM479 1260l15 149h116l-12 -149h-119zM657 1260l13 149h147l-65 -149h-95zM811 1260l66 147h41q18 1 32 -13q10 -10 9 -25q0 -5 -1 -11l-8 -98h-139z" />
<glyph unicode="U" d="M16 49l11 98h139l-66 -147h-41q-21 0 -33 14q-11 12 -10 30v5zM31 211l14 147h117l-12 -147h-119zM51 420l12 147h119l-14 -147h-117zM70 631l14 147h117l-15 -147h-116zM88 840l14 147h117l-12 -147h-119zM109 1051l12 147h119l-15 -147h-116zM127 1260l8 98 q4 23 18.5 36t34.5 13h39l39 -147h-139zM158 0l65 147h96l-12 -147h-149zM365 0l14 147h117l-13 -147h-118zM541 0l14 147h96l37 -147h-147zM709 147h141l-10 -98q-2 -20 -16.5 -34.5t-35.5 -14.5h-40zM737 211l15 147h116l-14 -147h-117zM756 420l14 147h117l-13 -147h-118 zM776 631l12 147h117l-12 -147h-117zM795 840l12 147h119l-15 -147h-116zM811 1260l66 147h41q18 1 32 -13q10 -10 9 -25q0 -5 -1 -11l-8 -98h-139zM813 1051l14 147h117l-12 -147h-119z" />
<glyph unicode="V" d="M16 49l11 98h139l-66 -147h-41q-21 0 -33 14q-11 12 -10 30v5zM31 211l14 147h117l-12 -147h-119zM51 420l12 147h119l-14 -147h-117zM70 631l14 147h117l-15 -147h-116zM88 840l14 147h117l-12 -147h-119zM109 1051l12 147h119l-15 -147h-116zM127 1260l8 98 q4 23 18.5 36t34.5 13h39l39 -147h-139zM207 209l14 149h96l-65 -149h-45zM227 420l4 49l224 199l-111 -248h-117zM522 741l109 246h119l-5 -49zM659 1051l66 147h43l-12 -147h-97zM811 1260l66 147h41q18 1 32 -13q10 -10 9 -25q0 -5 -1 -11l-8 -98h-139zM813 1051l14 147 h117l-12 -147h-119z" />
<glyph unicode="W" d="M16 49l11 98h139l-66 -147h-41q-21 0 -33 14q-11 12 -10 30v5zM31 211l14 147h117l-12 -147h-119zM51 420l12 147h119l-14 -147h-117zM70 631l14 147h117l-15 -147h-116zM88 840l14 147h117l-12 -147h-119zM109 1051l12 147h119l-15 -147h-116zM127 1260l8 98 q4 23 18.5 36t34.5 13h39l39 -147h-139zM207 209l14 149h96l-65 -149h-45zM227 420l4 49l224 199l-111 -248h-117zM451 938l4 49h118l-6 -49l-75 -197zM461 1051l14 147h117l-14 -147h-117zM479 1260l15 149h116l-12 -149h-119zM516 668l186 -199l-4 -49h-118zM596 358h96 l-14 -149h-43zM709 147h141l-10 -98q-2 -20 -16.5 -34.5t-35.5 -14.5h-40zM737 211l15 147h116l-14 -147h-117zM756 420l14 147h117l-13 -147h-118zM776 631l12 147h117l-12 -147h-117zM795 840l12 147h119l-15 -147h-116zM811 1260l66 147h41q18 1 32 -13q10 -10 9 -25 q0 -5 -1 -11l-8 -98h-139zM813 1051l14 147h117l-12 -147h-119z" />
<glyph unicode="X" d="M16 49l11 98h139l-66 -147h-41q-21 0 -33 14q-11 12 -10 30v5zM31 211l14 147h117l-12 -147h-119zM109 1051l12 147h119l-15 -147h-116zM127 1260l8 98q4 23 18.5 36t34.5 13h39l39 -147h-139zM207 209l14 149h96l-65 -149h-45zM227 420l4 49l224 199l-111 -248h-117z M274 938l5 49h116l66 -246zM285 1051l12 147h45l39 -147h-96zM451 938l4 49h118l-6 -49l-75 -197zM516 668l186 -199l-4 -49h-118zM522 741l109 246h119l-5 -49zM596 358h96l-14 -149h-43zM659 1051l66 147h43l-12 -147h-97zM709 147h141l-10 -98q-2 -20 -16.5 -34.5 t-35.5 -14.5h-40zM737 211l15 147h116l-14 -147h-117zM811 1260l66 147h41q18 1 32 -13q10 -10 9 -25q0 -5 -1 -11l-8 -98h-139zM813 1051l14 147h117l-12 -147h-119z" />
<glyph unicode="Y" d="M109 1051l12 147h119l-15 -147h-116zM127 1260l8 98q4 23 18.5 36t34.5 13h39l39 -147h-139zM274 938l5 49h116l66 -246zM285 1051l12 147h45l39 -147h-96zM365 0l14 147h117l-13 -147h-118zM385 209l12 149h119l-14 -149h-117zM403 420l5 49l77 199l41 -199l-6 -49h-117 zM451 938l4 49h118l-6 -49l-75 -197zM522 741l109 246h119l-5 -49zM659 1051l66 147h43l-12 -147h-97zM811 1260l66 147h41q18 0 32 -13q9 -10 9 -25q0 -5 -1 -11l-8 -98h-139zM813 1051l14 147h117l-12 -147h-119z" />
<glyph unicode="Z" d="M16 49l11 98h139l-66 -147h-41q-21 0 -33 14q-11 12 -10 30v5zM31 211l14 147h117l-12 -147h-119zM127 1260l8 98q4 23 18.5 36t34.5 13h39l39 -147h-139zM158 0l65 147h96l-12 -147h-149zM207 209l14 149h96l-65 -149h-45zM227 420l4 49l224 199l-111 -248h-117z M287 1409h147l-14 -149h-94zM365 0l14 147h117l-13 -147h-118zM479 1260l15 149h116l-12 -149h-119zM522 741l109 246h119l-5 -49zM541 0l14 147h96l37 -147h-147zM657 1260l13 149h147l-65 -149h-95zM659 1051l66 147h43l-12 -147h-97zM709 147h141l-10 -98 q-2 -20 -16.5 -34.5t-35.5 -14.5h-40zM811 1260l66 147h41q18 1 32 -13q10 -10 9 -25q0 -5 -1 -11l-8 -98h-139zM813 1051l14 147h117l-12 -147h-119z" />
<glyph unicode="\" d="M109 1051l12 147h119l-15 -147h-116zM127 1260l8 98q4 23 18.5 36t34.5 13h39l39 -147h-139zM274 938l5 49h116l66 -246zM285 1051l12 147h45l39 -147h-96zM516 668l186 -199l-4 -49h-118zM596 358h96l-14 -149h-43zM709 147h141l-10 -98q-2 -20 -16.5 -34.5t-35.5 -14.5 h-40zM737 211l15 147h116l-14 -147h-117z" />
<glyph unicode="a" d="M16 49l11 98h139l-66 -147h-41q-21 0 -33 14q-11 12 -10 30v5zM31 211l14 147h117l-12 -147h-119zM51 420l12 147h119l-14 -147h-117zM70 631l14 147h117l-15 -147h-116zM88 840l14 147h117l-12 -147h-119zM109 1051l12 147h119l-15 -147h-116zM127 1260l8 98 q4 23 18.5 36t34.5 13h39l39 -147h-139zM246 631l14 147h47l146 -73l-160 -74h-47zM287 1409h147l-14 -149h-94zM479 1260l15 149h116l-12 -149h-119zM524 705l158 73h47l-12 -147h-47zM657 1260l13 149h147l-65 -149h-95zM709 147h141l-10 -98q-2 -20 -16.5 -34.5 t-35.5 -14.5h-40zM737 211l15 147h116l-14 -147h-117zM756 420l14 147h117l-13 -147h-118zM776 631l12 147h117l-12 -147h-117zM795 840l12 147h119l-15 -147h-116zM811 1260l66 147h41q18 1 32 -13q10 -10 9 -25q0 -5 -1 -11l-8 -98h-139zM813 1051l14 147h117l-12 -147 h-119z" />
<glyph unicode="b" d="M16 49l11 98h139l-66 -147h-41q-21 0 -33 14q-11 12 -10 30v5zM31 211l14 147h117l-12 -147h-119zM51 420l12 147h119l-14 -147h-117zM70 631l14 147h117l-15 -147h-116zM88 840l14 147h117l-12 -147h-119zM109 1051l12 147h119l-15 -147h-116zM127 1260l8 98 q4 23 18.5 36t34.5 13h39l39 -147h-139zM158 0l65 147h96l-12 -147h-149zM246 631l14 147h47l146 -73l-160 -74h-47zM287 1409h147l-14 -149h-94zM365 0l14 147h117l-13 -147h-118zM479 1260l15 149h116l-12 -149h-119zM522 741l109 246h119l-5 -49zM524 705l158 73h47 l-12 -147h-47zM541 0l14 147h96l37 -147h-147zM657 1260l13 149h147l-65 -149h-95zM659 1051l66 147h43l-12 -147h-97zM709 147h141l-10 -98q-2 -20 -16.5 -34.5t-35.5 -14.5h-40zM737 211l15 147h116l-14 -147h-117zM756 420l14 147h117l-13 -147h-118zM776 631l12 147h117 l-12 -147h-117zM811 1260l66 147h41q18 1 32 -13q10 -10 9 -25q0 -5 -1 -11l-8 -98h-139zM813 1051l14 147h117l-12 -147h-119z" />
<glyph unicode="c" d="M16 49l11 98h139l-66 -147h-41q-21 0 -33 14q-11 12 -10 30v5zM31 211l14 147h117l-12 -147h-119zM51 420l12 147h119l-14 -147h-117zM70 631l14 147h117l-15 -147h-116zM88 840l14 147h117l-12 -147h-119zM109 1051l12 147h119l-15 -147h-116zM127 1260l8 98 q4 23 18.5 36t34.5 13h39l39 -147h-139zM158 0l65 147h96l-12 -147h-149zM287 1409h147l-14 -149h-94zM365 0l14 147h117l-13 -147h-118zM479 1260l15 149h116l-12 -149h-119zM541 0l14 147h96l37 -147h-147zM657 1260l13 149h147l-65 -149h-95zM709 147h141l-10 -98 q-2 -20 -16.5 -34.5t-35.5 -14.5h-40zM737 211l15 147h116l-14 -147h-117zM811 1260l66 147h41q18 1 32 -13q10 -10 9 -25q0 -5 -1 -11l-8 -98h-139zM813 1051l14 147h117l-12 -147h-119z" />
<glyph unicode="d" d="M16 49l11 98h139l-66 -147h-41q-21 0 -33 14q-11 12 -10 30v5zM127 1260l8 98q4 23 18.5 36t34.5 13h39l39 -147h-139zM158 0l65 147h96l-12 -147h-149zM287 1409h147l-14 -149h-94zM365 0l14 147h117l-13 -147h-118zM385 209l12 149h119l-14 -149h-117zM403 420l5 49 l77 199l41 -199l-6 -49h-117zM451 938l4 49h118l-6 -49l-75 -197zM461 1051l14 147h117l-14 -147h-117zM479 1260l15 149h116l-12 -149h-119zM541 0l14 147h96l37 -147h-147zM657 1260l13 149h147l-65 -149h-95zM709 147h141l-10 -98q-2 -20 -16.5 -34.5t-35.5 -14.5h-40z M737 211l15 147h116l-14 -147h-117zM756 420l14 147h117l-13 -147h-118zM776 631l12 147h117l-12 -147h-117zM795 840l12 147h119l-15 -147h-116zM811 1260l66 147h41q18 1 32 -13q10 -10 9 -25q0 -5 -1 -11l-8 -98h-139zM813 1051l14 147h117l-12 -147h-119z" />
<glyph unicode="e" d="M16 49l11 98h139l-66 -147h-41q-21 0 -33 14q-11 12 -10 30v5zM31 211l14 147h117l-12 -147h-119zM51 420l12 147h119l-14 -147h-117zM70 631l14 147h117l-15 -147h-116zM88 840l14 147h117l-12 -147h-119zM109 1051l12 147h119l-15 -147h-116zM127 1260l8 98 q4 23 18.5 36t34.5 13h39l39 -147h-139zM158 0l65 147h96l-12 -147h-149zM246 631l14 147h47l146 -73l-160 -74h-47zM287 1409h147l-14 -149h-94zM365 0l14 147h117l-13 -147h-118zM479 1260l15 149h116l-12 -149h-119zM524 705l158 73h47l-12 -147h-47zM541 0l14 147h96 l37 -147h-147zM657 1260l13 149h147l-65 -149h-95zM709 147h141l-10 -98q-2 -20 -16.5 -34.5t-35.5 -14.5h-40zM776 631l12 147h117l-12 -147h-117zM811 1260l66 147h41q18 1 32 -13q10 -10 9 -25q0 -5 -1 -11l-8 -98h-139z" />
<glyph unicode="f" d="M16 49l11 98h139l-66 -147h-41q-20 0 -33 14q-10 13 -10 30v5zM31 211l14 147h117l-12 -147h-119zM51 420l12 147h119l-14 -147h-117zM70 631l14 147h117l-15 -147h-116zM88 840l14 147h117l-12 -147h-119zM109 1051l12 147h119l-15 -147h-116zM127 1260l8 98 q4 23 18.5 36t34.5 13h39l39 -147h-139zM246 631l14 147h47l146 -73l-160 -74h-47zM287 1409h147l-14 -149h-94zM479 1260l15 149h116l-12 -149h-119zM524 705l158 73h47l-12 -147h-47zM657 1260l13 149h147l-65 -149h-95zM776 631l12 147h117l-12 -147h-117zM811 1260 l66 147h41q18 0 32 -13q9 -10 9 -25q0 -5 -1 -11l-8 -98h-139z" />
<glyph unicode="g" d="M16 49l11 98h139l-66 -147h-41q-20 0 -33 14q-10 13 -10 30v5zM31 211l14 147h117l-12 -147h-119zM51 420l12 147h119l-14 -147h-117zM70 631l14 147h117l-15 -147h-116zM88 840l14 147h117l-12 -147h-119zM109 1051l12 147h119l-15 -147h-116zM127 1260l8 98 q4 23 18.5 36t34.5 13h39l39 -147h-139zM158 0l65 147h96l-12 -147h-149zM287 1409h147l-14 -149h-94zM365 0l14 147h117l-13 -147h-118zM479 1260l15 149h116l-12 -149h-119zM524 705l158 73h47l-12 -147h-47zM541 0l14 147h96l37 -147h-147zM657 1260l13 149h147l-65 -149 h-95zM709 147h141l-10 -98q-2 -20 -16.5 -34.5t-35.5 -14.5h-40zM737 211l15 147h116l-14 -147h-117zM756 420l14 147h117l-13 -147h-118zM776 631l12 147h117l-12 -147h-117zM811 1260l66 147h41q18 0 32 -13q9 -10 9 -25q0 -5 -1 -11l-8 -98h-139zM813 1051l14 147h117 l-12 -147h-119z" />
<glyph unicode="h" d="M16 49l11 98h139l-66 -147h-41q-21 0 -33 14q-11 12 -10 30v5zM31 211l14 147h117l-12 -147h-119zM51 420l12 147h119l-14 -147h-117zM70 631l14 147h117l-15 -147h-116zM88 840l14 147h117l-12 -147h-119zM109 1051l12 147h119l-15 -147h-116zM127 1260l8 98 q4 23 18.5 36t34.5 13h39l39 -147h-139zM246 631l14 147h47l146 -73l-160 -74h-47zM524 705l158 73h47l-12 -147h-47zM709 147h141l-10 -98q-2 -20 -16.5 -34.5t-35.5 -14.5h-40zM737 211l15 147h116l-14 -147h-117zM756 420l14 147h117l-13 -147h-118zM776 631l12 147h117 l-12 -147h-117zM795 840l12 147h119l-15 -147h-116zM811 1260l66 147h41q18 1 32 -13q10 -10 9 -25q0 -5 -1 -11l-8 -98h-139zM813 1051l14 147h117l-12 -147h-119z" />
<glyph unicode="i" d="M16 49l11 98h139l-66 -147h-41q-21 0 -33 14q-11 12 -10 30v5zM127 1260l8 98q4 23 18.5 36t34.5 13h39l39 -147h-139zM158 0l65 147h96l-12 -147h-149zM287 1409h147l-14 -149h-94zM365 0l14 147h117l-13 -147h-118zM385 209l12 149h119l-14 -149h-117zM403 420l5 49 l77 199l41 -199l-6 -49h-117zM451 938l4 49h118l-6 -49l-75 -197zM461 1051l14 147h117l-14 -147h-117zM479 1260l15 149h116l-12 -149h-119zM541 0l14 147h96l37 -147h-147zM657 1260l13 149h147l-65 -149h-95zM709 147h141l-10 -98q-2 -20 -16.5 -34.5t-35.5 -14.5h-40z M811 1260l66 147h41q18 1 32 -13q10 -10 9 -25q0 -5 -1 -11l-8 -98h-139z" />
<glyph unicode="j" d="M16 49l11 98h139l-66 -147h-41q-20 0 -33 14q-10 13 -10 30v5zM31 211l14 147h117l-12 -147h-119zM51 420h117l14 147h-119zM158 0l65 147h96l-12 -147h-149zM365 0l14 147h117l-13 -147h-118zM541 0h147l-37 147h-96zM709 147l39 -147h40q20 0 35 14.5t17 34.5l10 98 h-141zM737 211l15 147h116l-14 -147h-117zM756 420h118l13 147h-117zM776 631h117l12 147h-117zM795 840h116l15 147h-119zM811 1260l66 147h41q18 0 32 -13q9 -10 9 -25q0 -5 -1 -11l-8 -98h-139zM813 1051h119l12 147h-117z" />
<glyph unicode="k" d="M16 49l11 98h139l-66 -147h-41q-21 0 -33 14q-11 12 -10 30v5zM31 211l14 147h117l-12 -147h-119zM51 420l12 147h119l-14 -147h-117zM70 631l14 147h117l-15 -147h-116zM88 840l14 147h117l-12 -147h-119zM109 1051l12 147h119l-15 -147h-116zM127 1260l8 98 q4 23 18.5 36t34.5 13h39l39 -147h-139zM246 631l14 147h47l146 -73l-160 -74h-47zM516 668l186 -199l-4 -49h-118zM522 741l109 246h119l-5 -49zM596 358h96l-14 -149h-43zM659 1051l66 147h43l-12 -147h-97zM709 147h141l-10 -98q-2 -20 -16.5 -34.5t-35.5 -14.5h-40z M737 211l15 147h116l-14 -147h-117zM811 1260l66 147h41q18 1 32 -13q10 -10 9 -25q0 -5 -1 -11l-8 -98h-139zM813 1051l14 147h117l-12 -147h-119z" />
<glyph unicode="l" d="M16 49l11 98h139l-66 -147h-41q-21 0 -33 14q-11 12 -10 30v5zM31 211l14 147h117l-12 -147h-119zM51 420l12 147h119l-14 -147h-117zM70 631l14 147h117l-15 -147h-116zM88 840l14 147h117l-12 -147h-119zM109 1051l12 147h119l-15 -147h-116zM127 1260l8 98 q4 23 18.5 36t34.5 13h39l39 -147h-139zM158 0l65 147h96l-12 -147h-149zM365 0l14 147h117l-13 -147h-118zM541 0l14 147h96l37 -147h-147zM709 147h141l-10 -98q-2 -20 -16.5 -34.5t-35.5 -14.5h-40z" />
<glyph unicode="m" d="M16 49l11 98h139l-66 -147h-41q-21 0 -33 14q-11 12 -10 30v5zM31 211l14 147h117l-12 -147h-119zM51 420l12 147h119l-14 -147h-117zM70 631l14 147h117l-15 -147h-116zM88 840l14 147h117l-12 -147h-119zM109 1051l12 147h119l-15 -147h-116zM127 1260l8 98 q4 23 18.5 36t34.5 13h39l39 -147h-139zM274 938l5 49h116l66 -246zM285 1051l12 147h45l39 -147h-96zM365 0l14 147h117l-13 -147h-118zM385 209l12 149h119l-14 -149h-117zM403 420l5 49l77 199l41 -199l-6 -49h-117zM522 741l109 246h119l-5 -49zM659 1051l66 147h43 l-12 -147h-97zM709 147h141l-10 -98q-2 -20 -16.5 -34.5t-35.5 -14.5h-40zM737 211l15 147h116l-14 -147h-117zM756 420l14 147h117l-13 -147h-118zM776 631l12 147h117l-12 -147h-117zM795 840l12 147h119l-15 -147h-116zM811 1260l66 147h41q18 1 32 -13q10 -10 9 -25 q0 -5 -1 -11l-8 -98h-139zM813 1051l14 147h117l-12 -147h-119z" />
<glyph unicode="n" d="M16 49l11 98h139l-66 -147h-41q-21 0 -33 14q-11 12 -10 30v5zM31 211l14 147h117l-12 -147h-119zM51 420l12 147h119l-14 -147h-117zM70 631l14 147h117l-15 -147h-116zM88 840l14 147h117l-12 -147h-119zM109 1051l12 147h119l-15 -147h-116zM127 1260l8 98 q4 23 18.5 36t34.5 13h39l39 -147h-139zM274 938l5 49h116l66 -246zM285 1051l12 147h45l39 -147h-96zM516 668l186 -199l-4 -49h-118zM596 358h96l-14 -149h-43zM709 147h141l-10 -98q-2 -20 -16.5 -34.5t-35.5 -14.5h-40zM737 211l15 147h116l-14 -147h-117zM756 420 l14 147h117l-13 -147h-118zM776 631l12 147h117l-12 -147h-117zM795 840l12 147h119l-15 -147h-116zM811 1260l66 147h41q18 1 32 -13q10 -10 9 -25q0 -5 -1 -11l-8 -98h-139zM813 1051l14 147h117l-12 -147h-119z" />
<glyph unicode="o" d="M16 49l11 98h139l-66 -147h-41q-21 0 -33 14q-11 12 -10 30v5zM31 211l14 147h117l-12 -147h-119zM51 420l12 147h119l-14 -147h-117zM70 631l14 147h117l-15 -147h-116zM88 840l14 147h117l-12 -147h-119zM109 1051l12 147h119l-15 -147h-116zM127 1260l8 98 q4 23 18.5 36t34.5 13h39l39 -147h-139zM158 0l65 147h96l-12 -147h-149zM287 1409h147l-14 -149h-94zM365 0l14 147h117l-13 -147h-118zM479 1260l15 149h116l-12 -149h-119zM541 0l14 147h96l37 -147h-147zM657 1260l13 149h147l-65 -149h-95zM709 147h141l-10 -98 q-2 -20 -16.5 -34.5t-35.5 -14.5h-40zM737 211l15 147h116l-14 -147h-117zM756 420l14 147h117l-13 -147h-118zM776 631l12 147h117l-12 -147h-117zM795 840l12 147h119l-15 -147h-116zM811 1260l66 147h41q18 1 32 -13q10 -10 9 -25q0 -5 -1 -11l-8 -98h-139zM813 1051 l14 147h117l-12 -147h-119z" />
<glyph unicode="p" d="M16 49l11 98h139l-66 -147h-41q-20 0 -33 14q-10 13 -10 30v5zM31 211l14 147h117l-12 -147h-119zM51 420l12 147h119l-14 -147h-117zM70 631l14 147h117l-15 -147h-116zM88 840l14 147h117l-12 -147h-119zM109 1051l12 147h119l-15 -147h-116zM127 1260l8 98 q4 23 18.5 36t34.5 13h39l39 -147h-139zM246 631l14 147h47l146 -73l-160 -74h-47zM287 1409h147l-14 -149h-94zM479 1260l15 149h116l-12 -149h-119zM524 705l158 73h47l-12 -147h-47zM657 1260l13 149h147l-65 -149h-95zM776 631l12 147h117l-12 -147h-117zM795 840 l12 147h119l-15 -147h-116zM811 1260l66 147h41q18 0 32 -13q9 -10 9 -25q0 -5 -1 -11l-8 -98h-139zM813 1051l14 147h117l-12 -147h-119z" />
<glyph unicode="q" d="M16 49l11 98h139l-66 -147h-41q-20 0 -33 14q-10 13 -10 30v5zM31 211l14 147h117l-12 -147h-119zM51 420l12 147h119l-14 -147h-117zM70 631l14 147h117l-15 -147h-116zM88 840l14 147h117l-12 -147h-119zM109 1051l12 147h119l-15 -147h-116zM127 1260l8 98 q4 23 18.5 36t34.5 13h39l39 -147h-139zM158 0l65 147h96l-12 -147h-149zM287 1409h147l-14 -149h-94zM365 0l14 147h117l-13 -147h-118zM479 1260l15 149h116l-12 -149h-119zM516 668l186 -199l-4 -49h-118zM541 0l14 147h96l37 -147h-147zM596 358h96l-14 -149h-43z M657 1260l13 149h147l-65 -149h-95zM709 147h141l-10 -98q-2 -20 -16.5 -34.5t-35.5 -14.5h-40zM737 211l15 147h116l-14 -147h-117zM756 420l14 147h117l-13 -147h-118zM776 631l12 147h117l-12 -147h-117zM795 840l12 147h119l-15 -147h-116zM811 1260l66 147h41 q18 0 32 -13q9 -10 9 -25q0 -5 -1 -11l-8 -98h-139zM813 1051l14 147h117l-12 -147h-119z" />
<glyph unicode="r" d="M16 49l11 98h139l-66 -147h-41q-21 0 -33 14q-11 12 -10 30v5zM31 211l14 147h117l-12 -147h-119zM51 420l12 147h119l-14 -147h-117zM70 631l14 147h117l-15 -147h-116zM88 840l14 147h117l-12 -147h-119zM109 1051l12 147h119l-15 -147h-116zM127 1260l8 98 q4 23 18.5 36t34.5 13h39l39 -147h-139zM246 631l14 147h47l146 -73l-160 -74h-47zM287 1409h147l-14 -149h-94zM479 1260l15 149h116l-12 -149h-119zM516 668l186 -199l-4 -49h-118zM524 705l158 73h47l-12 -147h-47zM596 358h96l-14 -149h-43zM657 1260l13 149h147 l-65 -149h-95zM709 147h141l-10 -98q-2 -20 -16.5 -34.5t-35.5 -14.5h-40zM737 211l15 147h116l-14 -147h-117zM776 631l12 147h117l-12 -147h-117zM795 840l12 147h119l-15 -147h-116zM811 1260l66 147h41q18 1 32 -13q10 -10 9 -25q0 -5 -1 -11l-8 -98h-139zM813 1051 l14 147h117l-12 -147h-119z" />
<glyph unicode="s" d="M16 49l11 98h139l-66 -147h-41q-21 0 -33 14q-11 12 -10 30v5zM31 211l14 147h117l-12 -147h-119zM70 631l14 147h117l-15 -147h-116zM88 840l14 147h117l-12 -147h-119zM109 1051l12 147h119l-15 -147h-116zM127 1260l8 98q4 23 18.5 36t34.5 13h39l39 -147h-139zM158 0 l65 147h96l-12 -147h-149zM246 631l14 147h47l146 -73l-160 -74h-47zM287 1409h147l-14 -149h-94zM365 0l14 147h117l-13 -147h-118zM479 1260l15 149h116l-12 -149h-119zM524 705l158 73h47l-12 -147h-47zM541 0l14 147h96l37 -147h-147zM657 1260l13 149h147l-65 -149h-95 zM709 147h141l-10 -98q-2 -20 -16.5 -34.5t-35.5 -14.5h-40zM737 211l15 147h116l-14 -147h-117zM756 420l14 147h117l-13 -147h-118zM776 631l12 147h117l-12 -147h-117zM811 1260l66 147h41q18 1 32 -13q10 -10 9 -25q0 -5 -1 -11l-8 -98h-139zM813 1051l14 147h117 l-12 -147h-119z" />
<glyph unicode="t" d="M127 1260l8 98q4 23 18.5 36t34.5 13h39l39 -147h-139zM287 1409h147l-14 -149h-94zM365 0l14 147h117l-13 -147h-118zM385 209l12 149h119l-14 -149h-117zM403 420l5 49l77 199l41 -199l-6 -49h-117zM451 938l4 49h118l-6 -49l-75 -197zM461 1051l14 147h117l-14 -147 h-117zM479 1260l15 149h116l-12 -149h-119zM657 1260l13 149h147l-65 -149h-95zM811 1260l66 147h41q18 1 32 -13q10 -10 9 -25q0 -5 -1 -11l-8 -98h-139z" />
<glyph unicode="u" d="M16 49l11 98h139l-66 -147h-41q-21 0 -33 14q-11 12 -10 30v5zM31 211l14 147h117l-12 -147h-119zM51 420l12 147h119l-14 -147h-117zM70 631l14 147h117l-15 -147h-116zM88 840l14 147h117l-12 -147h-119zM109 1051l12 147h119l-15 -147h-116zM127 1260l8 98 q4 23 18.5 36t34.5 13h39l39 -147h-139zM158 0l65 147h96l-12 -147h-149zM365 0l14 147h117l-13 -147h-118zM541 0l14 147h96l37 -147h-147zM709 147h141l-10 -98q-2 -20 -16.5 -34.5t-35.5 -14.5h-40zM737 211l15 147h116l-14 -147h-117zM756 420l14 147h117l-13 -147h-118 zM776 631l12 147h117l-12 -147h-117zM795 840l12 147h119l-15 -147h-116zM811 1260l66 147h41q18 1 32 -13q10 -10 9 -25q0 -5 -1 -11l-8 -98h-139zM813 1051l14 147h117l-12 -147h-119z" />
<glyph unicode="v" d="M16 49l11 98h139l-66 -147h-41q-21 0 -33 14q-11 12 -10 30v5zM31 211l14 147h117l-12 -147h-119zM51 420l12 147h119l-14 -147h-117zM70 631l14 147h117l-15 -147h-116zM88 840l14 147h117l-12 -147h-119zM109 1051l12 147h119l-15 -147h-116zM127 1260l8 98 q4 23 18.5 36t34.5 13h39l39 -147h-139zM207 209l14 149h96l-65 -149h-45zM227 420l4 49l224 199l-111 -248h-117zM522 741l109 246h119l-5 -49zM659 1051l66 147h43l-12 -147h-97zM811 1260l66 147h41q18 1 32 -13q10 -10 9 -25q0 -5 -1 -11l-8 -98h-139zM813 1051l14 147 h117l-12 -147h-119z" />
<glyph unicode="w" d="M16 49l11 98h139l-66 -147h-41q-21 0 -33 14q-11 12 -10 30v5zM31 211l14 147h117l-12 -147h-119zM51 420l12 147h119l-14 -147h-117zM70 631l14 147h117l-15 -147h-116zM88 840l14 147h117l-12 -147h-119zM109 1051l12 147h119l-15 -147h-116zM127 1260l8 98 q4 23 18.5 36t34.5 13h39l39 -147h-139zM207 209l14 149h96l-65 -149h-45zM227 420l4 49l224 199l-111 -248h-117zM451 938l4 49h118l-6 -49l-75 -197zM461 1051l14 147h117l-14 -147h-117zM479 1260l15 149h116l-12 -149h-119zM516 668l186 -199l-4 -49h-118zM596 358h96 l-14 -149h-43zM709 147h141l-10 -98q-2 -20 -16.5 -34.5t-35.5 -14.5h-40zM737 211l15 147h116l-14 -147h-117zM756 420l14 147h117l-13 -147h-118zM776 631l12 147h117l-12 -147h-117zM795 840l12 147h119l-15 -147h-116zM811 1260l66 147h41q18 1 32 -13q10 -10 9 -25 q0 -5 -1 -11l-8 -98h-139zM813 1051l14 147h117l-12 -147h-119z" />
<glyph unicode="x" d="M16 49l11 98h139l-66 -147h-41q-21 0 -33 14q-11 12 -10 30v5zM31 211l14 147h117l-12 -147h-119zM109 1051l12 147h119l-15 -147h-116zM127 1260l8 98q4 23 18.5 36t34.5 13h39l39 -147h-139zM207 209l14 149h96l-65 -149h-45zM227 420l4 49l224 199l-111 -248h-117z M274 938l5 49h116l66 -246zM285 1051l12 147h45l39 -147h-96zM451 938l4 49h118l-6 -49l-75 -197zM516 668l186 -199l-4 -49h-118zM522 741l109 246h119l-5 -49zM596 358h96l-14 -149h-43zM659 1051l66 147h43l-12 -147h-97zM709 147h141l-10 -98q-2 -20 -16.5 -34.5 t-35.5 -14.5h-40zM737 211l15 147h116l-14 -147h-117zM811 1260l66 147h41q18 1 32 -13q10 -10 9 -25q0 -5 -1 -11l-8 -98h-139zM813 1051l14 147h117l-12 -147h-119z" />
<glyph unicode="y" d="M109 1051l12 147h119l-15 -147h-116zM127 1260l8 98q4 23 18.5 36t34.5 13h39l39 -147h-139zM274 938l5 49h116l66 -246zM285 1051l12 147h45l39 -147h-96zM365 0l14 147h117l-13 -147h-118zM385 209l12 149h119l-14 -149h-117zM403 420l5 49l77 199l41 -199l-6 -49h-117 zM451 938l4 49h118l-6 -49l-75 -197zM522 741l109 246h119l-5 -49zM659 1051l66 147h43l-12 -147h-97zM811 1260l66 147h41q18 0 32 -13q9 -10 9 -25q0 -5 -1 -11l-8 -98h-139zM813 1051l14 147h117l-12 -147h-119z" />
<glyph unicode="z" d="M16 49l11 98h139l-66 -147h-41q-21 0 -33 14q-11 12 -10 30v5zM31 211l14 147h117l-12 -147h-119zM127 1260l8 98q4 23 18.5 36t34.5 13h39l39 -147h-139zM158 0l65 147h96l-12 -147h-149zM207 209l14 149h96l-65 -149h-45zM227 420l4 49l224 199l-111 -248h-117z M287 1409h147l-14 -149h-94zM365 0l14 147h117l-13 -147h-118zM479 1260l15 149h116l-12 -149h-119zM522 741l109 246h119l-5 -49zM541 0l14 147h96l37 -147h-147zM657 1260l13 149h147l-65 -149h-95zM659 1051l66 147h43l-12 -147h-97zM709 147h141l-10 -98 q-2 -20 -16.5 -34.5t-35.5 -14.5h-40zM811 1260l66 147h41q18 1 32 -13q10 -10 9 -25q0 -5 -1 -11l-8 -98h-139zM813 1051l14 147h117l-12 -147h-119z" />
<glyph unicode="|" d="M365 0l14 147h117l-13 -147h-118zM385 209l12 149h119l-14 -149h-117zM403 420l5 49l77 199l41 -199l-6 -49h-117zM451 938l4 49h118l-6 -49l-75 -197zM461 1051l14 147h117l-14 -147h-117zM479 1260l15 149h116l-12 -149h-119z" />
<glyph unicode="&#xa0;" />
<glyph unicode="&#xad;" d="M70 631h116l15 147h-117zM246 631h47l160 74l-146 73h-47zM524 705l158 73h47l-12 -147h-47zM776 631h117l12 147h-117z" />
<glyph unicode="&#x2000;" horiz-adv-x="704" />
<glyph unicode="&#x2001;" horiz-adv-x="1409" />
<glyph unicode="&#x2002;" horiz-adv-x="704" />
<glyph unicode="&#x2003;" horiz-adv-x="1409" />
<glyph unicode="&#x2004;" horiz-adv-x="469" />
<glyph unicode="&#x2005;" horiz-adv-x="352" />
<glyph unicode="&#x2006;" horiz-adv-x="234" />
<glyph unicode="&#x2007;" horiz-adv-x="234" />
<glyph unicode="&#x2008;" horiz-adv-x="176" />
<glyph unicode="&#x2009;" horiz-adv-x="281" />
<glyph unicode="&#x200a;" horiz-adv-x="78" />
<glyph unicode="&#x2010;" d="M70 631h116l15 147h-117zM246 631h47l160 74l-146 73h-47zM524 705l158 73h47l-12 -147h-47zM776 631h117l12 147h-117z" />
<glyph unicode="&#x2011;" d="M70 631h116l15 147h-117zM246 631h47l160 74l-146 73h-47zM524 705l158 73h47l-12 -147h-47zM776 631h117l12 147h-117z" />
<glyph unicode="&#x2012;" d="M70 631h116l15 147h-117zM246 631h47l160 74l-146 73h-47zM524 705l158 73h47l-12 -147h-47zM776 631h117l12 147h-117z" />
<glyph unicode="&#x2013;" horiz-adv-x="1315" d="M70 631h142l19 147h-144zM286 631h57l197 74l-179 73h-58zM627 705l194 73h57l-15 -147h-57zM936 631h143l15 147h-143z" />
<glyph unicode="&#x2014;" horiz-adv-x="2339" d="M70 631h285l36 147h-287zM502 631h115l392 74l-358 73h-115zM1184 705l387 73h115l-29 -147h-115zM1802 631h287l29 147h-287z" />
<glyph unicode="&#x2019;" d="M-94 1284l10 100h18q10 0 19.5 -6t17.5 -14q16 -18 13 -45l-2 -35l-66 -125l12 125h-22z" />
<glyph unicode="&#x2022;" d="M719 49l10 98h139l-65 -147h-41q-20 0 -32.5 14.5t-10.5 34.5zM733 211l15 147h116l-12 -147h-119zM754 420l12 147h119l-15 -147h-116zM772 631l14 147h117l-14 -147h-117zM791 840l14 147h117l-13 -147h-118zM811 1051l12 147h119l-14 -147h-117zM829 1260l9 98 q4 23 18 36t35 13h39l39 -147h-140zM860 0l66 147h96l-12 -147h-150zM909 209l15 149h96l-66 -149h-45zM930 420l4 49l223 199l-110 -248h-117zM948 631l15 147h47l145 -73l-160 -74h-47zM977 938l4 49h117l65 -246zM987 1051l12 147h45l39 -147h-96zM989 1409h148l-15 -149 h-94zM1067 0l14 147h117l-12 -147h-119zM1087 209l13 149h119l-15 -149h-117zM1106 420l4 49l78 199l41 -199l-6 -49h-117zM1153 938l4 49h119l-6 -49l-76 -197zM1163 1051l15 147h116l-14 -147h-117zM1182 1260l14 149h117l-13 -149h-118zM1219 668l186 -199l-4 -49h-119z M1225 741l108 246h119l-4 -49zM1227 705l157 73h48l-13 -147h-47zM1243 0l14 147h97l37 -147h-148zM1298 358h97l-15 -149h-43zM1360 1260l12 149h148l-66 -149h-94zM1362 1051l65 147h43l-12 -147h-96zM1411 147h141l-10 -98q-2 -20 -16.5 -34.5t-34.5 -14.5h-41zM1440 211 l14 147h117l-15 -147h-116zM1458 420l15 147h116l-12 -147h-119zM1479 631l12 147h117l-13 -147h-116zM1497 840l12 147h119l-14 -147h-117zM1513 1260l66 147h41q18 0 31.5 -13.5t9.5 -35.5l-8 -98h-140zM1516 1051l14 147h117l-13 -147h-118zM1622 66l10 100h76l-10 -100 h-76zM1649 444l8 101h76l-9 -101h-75zM1686 864l10 101h76l-11 -101h-75zM1735 1284l10 100h18q10 0 19.5 -6t17.5 -14q16 -18 12 -45l-2 -35l-65 -125l12 125h-22z" />
<glyph unicode="&#x202f;" horiz-adv-x="281" />
<glyph unicode="&#x205f;" horiz-adv-x="352" />
<glyph unicode="&#x20ac;" d="M16 49l11 98h139l-66 -147h-41q-20 0 -32.5 14.5t-10.5 34.5zM31 211l14 147h117l-12 -147h-119zM51 420l12 147h119l-14 -147h-117zM70 631l14 147h117l-15 -147h-116zM88 840l14 147h117l-12 -147h-119zM109 1051l12 147h119l-15 -147h-116zM127 1260l8 98 q4 23 18.5 36t34.5 13h39l39 -147h-139zM158 0l65 147h96l-12 -147h-149zM227 420l4 49l224 199l-111 -248h-117zM274 938l5 49h116l66 -246zM287 1409h147l-14 -149h-94zM365 0l14 147h117l-13 -147h-118zM479 1260l15 149h116l-12 -149h-119zM541 0l14 147h96l37 -147 h-147zM657 1260l13 149h147l-65 -149h-95zM709 147h141l-10 -98q-2 -20 -16.5 -34.5t-35.5 -14.5h-40zM737 211l15 147h116l-14 -147h-117zM811 1260l66 147h41q18 0 31.5 -13.5t8.5 -35.5l-8 -98h-139zM813 1051l14 147h117l-12 -147h-119z" />
<glyph unicode="&#xe000;" horiz-adv-x="1402" d="M0 0v1403h1403v-1403h-1403z" />
</font>
</defs>
</svg>
